<svg width="99" height="40" viewBox="0 0 99 40" fill="none" xmlns="http://www.w3.org/2000/svg">
<rect width="98.5843" height="40" fill="#ED1D24"/>
<path d="M22.9082 8.86523V31H17.877V16.0566L15.8672 31H12.2988L10.1797 16.3984V31H5.14844V8.86523H12.5996C12.8184 10.196 13.0508 11.7637 13.2969 13.5684L14.0898 19.2012L15.4023 8.86523H22.9082ZM35.1582 8.86523L38.4531 31H32.5605L32.2734 27.0215H30.209L29.8672 31H23.9062L26.832 8.86523H35.1582ZM32.1094 23.0977C31.8177 20.5911 31.526 17.4967 31.2344 13.8145C30.651 18.0436 30.2865 21.138 30.1406 23.0977H32.1094ZM39.4375 8.86523H43.5117C46.2279 8.86523 48.0645 8.97005 49.0215 9.17969C49.9876 9.38932 50.7715 9.92708 51.373 10.793C51.9837 11.6497 52.2891 13.0215 52.2891 14.9082C52.2891 16.6309 52.0749 17.7884 51.6465 18.3809C51.2181 18.9733 50.375 19.3288 49.1172 19.4473C50.2565 19.7298 51.0221 20.1081 51.4141 20.582C51.806 21.056 52.0475 21.4935 52.1387 21.8945C52.2389 22.2865 52.2891 23.3757 52.2891 25.1621V31H46.9434V23.6445C46.9434 22.4596 46.8477 21.7259 46.6562 21.4434C46.474 21.1608 45.9863 21.0195 45.1934 21.0195V31H39.4375V8.86523ZM45.1934 12.6523V17.5742C45.8405 17.5742 46.2917 17.4876 46.5469 17.3145C46.8112 17.1322 46.9434 16.5534 46.9434 15.5781V14.3613C46.9434 13.6595 46.8158 13.1992 46.5605 12.9805C46.3145 12.7617 45.8587 12.6523 45.1934 12.6523ZM68.2031 8.86523L65.2773 31H56.541L53.2188 8.86523H59.2891C59.9909 14.9629 60.4922 20.1172 60.793 24.3281C61.0938 20.0716 61.4082 16.2891 61.7363 12.9805L62.1328 8.86523H68.2031ZM82.3398 21.8262C82.3398 24.0501 82.2852 25.627 82.1758 26.5566C82.0755 27.4772 81.7474 28.3203 81.1914 29.0859C80.6445 29.8516 79.9017 30.4395 78.9629 30.8496C78.0241 31.2598 76.9303 31.4648 75.6816 31.4648C74.4967 31.4648 73.4303 31.2734 72.4824 30.8906C71.5436 30.4987 70.7871 29.9154 70.2129 29.1406C69.6387 28.3659 69.2969 27.5228 69.1875 26.6113C69.0781 25.6999 69.0234 24.1048 69.0234 21.8262V18.0391C69.0234 15.8151 69.0736 14.2428 69.1738 13.3223C69.2832 12.3926 69.6113 11.5449 70.1582 10.7793C70.7142 10.0137 71.4616 9.42578 72.4004 9.01562C73.3392 8.60547 74.4329 8.40039 75.6816 8.40039C76.8665 8.40039 77.9284 8.59635 78.8672 8.98828C79.8151 9.37109 80.5762 9.94987 81.1504 10.7246C81.7246 11.4993 82.0664 12.3424 82.1758 13.2539C82.2852 14.1654 82.3398 15.7604 82.3398 18.0391V21.8262ZM76.584 14.5527C76.584 13.5228 76.5247 12.8665 76.4062 12.584C76.2969 12.2923 76.0645 12.1465 75.709 12.1465C75.4082 12.1465 75.1758 12.265 75.0117 12.502C74.8568 12.7298 74.7793 13.4134 74.7793 14.5527V24.8887C74.7793 26.1738 74.8294 26.9668 74.9297 27.2676C75.0391 27.5684 75.2852 27.7188 75.668 27.7188C76.0599 27.7188 76.3105 27.5456 76.4199 27.1992C76.5293 26.8529 76.584 26.028 76.584 24.7246V14.5527ZM90.2559 8.86523V26.5703H93.7559V31H84.5V8.86523H90.2559Z" fill="white"/>
</svg>
